<?xml version="1.0" encoding="UTF-8" standalone="no"?><svg xmlns="http://www.w3.org/2000/svg" xmlns:xlink="http://www.w3.org/1999/xlink" contentScriptType="application/ecmascript" contentStyleType="text/css" height="1215px" preserveAspectRatio="none" style="width:386px;height:1215px;" version="1.1" viewBox="0 0 386 1215" width="386px" zoomAndPan="magnify"><defs><filter height="300%" id="f123ea0e6mvk0q" width="300%" x="-1" y="-1"><feGaussianBlur result="blurOut" stdDeviation="2.0"/><feColorMatrix in="blurOut" result="blurOut2" type="matrix" values="0 0 0 0 0 0 0 0 0 0 0 0 0 0 0 0 0 0 .4 0"/><feOffset dx="4.0" dy="4.0" in="blurOut2" result="blurOut3"/><feBlend in="SourceGraphic" in2="blurOut3" mode="normal"/></filter></defs><g><rect fill="none" height="30.9531" rx="7.5" ry="7.5" style="stroke: #000000; stroke-width: 1.0;" width="253" x="72" y="2"/><text fill="#000000" font-family="sans-serif" font-size="18" lengthAdjust="spacingAndGlyphs" textLength="237" x="80" y="23.708">u6k.Blog Publish Workflow</text><!--cluster Local PC--><polygon fill="#FFFFFF" filter="url(#f123ea0e6mvk0q)" points="22,199.9531,32,189.9531,305,189.9531,305,418.9531,295,428.9531,22,428.9531,22,199.9531" style="stroke: #000000; stroke-width: 1.5;"/><line style="stroke: #000000; stroke-width: 1.5;" x1="295" x2="304" y1="199.9531" y2="190.9531"/><line style="stroke: #000000; stroke-width: 1.5;" x1="22" x2="295" y1="199.9531" y2="199.9531"/><line style="stroke: #000000; stroke-width: 1.5;" x1="295" x2="295" y1="199.9531" y2="428.9531"/><text fill="#000000" font-family="sans-serif" font-size="14" font-weight="bold" lengthAdjust="spacingAndGlyphs" textLength="67" x="126" y="215.9482">Local PC</text><!--cluster GitHub--><polygon fill="#FFFFFF" filter="url(#f123ea0e6mvk0q)" points="22,487.9531,32,477.9531,182,477.9531,182,576.9531,172,586.9531,22,586.9531,22,487.9531" style="stroke: #000000; stroke-width: 1.5;"/><line style="stroke: #000000; stroke-width: 1.5;" x1="172" x2="181" y1="487.9531" y2="478.9531"/><line style="stroke: #000000; stroke-width: 1.5;" x1="22" x2="172" y1="487.9531" y2="487.9531"/><line style="stroke: #000000; stroke-width: 1.5;" x1="172" x2="172" y1="487.9531" y2="586.9531"/><text fill="#000000" font-family="sans-serif" font-size="14" font-weight="bold" lengthAdjust="spacingAndGlyphs" textLength="53" x="71.5" y="503.9482">GitHub</text><!--cluster CircleCI--><polygon fill="#FFFFFF" filter="url(#f123ea0e6mvk0q)" points="42,645.9531,52,635.9531,364,635.9531,364,734.9531,354,744.9531,42,744.9531,42,645.9531" style="stroke: #000000; stroke-width: 1.5;"/><line style="stroke: #000000; stroke-width: 1.5;" x1="354" x2="363" y1="645.9531" y2="636.9531"/><line style="stroke: #000000; stroke-width: 1.5;" x1="42" x2="354" y1="645.9531" y2="645.9531"/><line style="stroke: #000000; stroke-width: 1.5;" x1="354" x2="354" y1="645.9531" y2="744.9531"/><text fill="#000000" font-family="sans-serif" font-size="14" font-weight="bold" lengthAdjust="spacingAndGlyphs" textLength="60" x="169" y="661.9482">CircleCI</text><!--cluster Docker Hub--><polygon fill="#FFFFFF" filter="url(#f123ea0e6mvk0q)" points="193,959.9531,203,949.9531,361,949.9531,361,1048.9531,351,1058.9531,193,1058.9531,193,959.9531" style="stroke: #000000; stroke-width: 1.5;"/><line style="stroke: #000000; stroke-width: 1.5;" x1="351" x2="360" y1="959.9531" y2="950.9531"/><line style="stroke: #000000; stroke-width: 1.5;" x1="193" x2="351" y1="959.9531" y2="959.9531"/><line style="stroke: #000000; stroke-width: 1.5;" x1="351" x2="351" y1="959.9531" y2="1058.9531"/><text fill="#000000" font-family="sans-serif" font-size="14" font-weight="bold" lengthAdjust="spacingAndGlyphs" textLength="92" x="227" y="975.9482">Docker Hub</text><!--cluster macOS--><polygon fill="#FFFFFF" filter="url(#f123ea0e6mvk0q)" points="37,803.9531,47,793.9531,167,793.9531,167,1048.9531,157,1058.9531,37,1058.9531,37,803.9531" style="stroke: #000000; stroke-width: 1.5;"/><line style="stroke: #000000; stroke-width: 1.5;" x1="157" x2="166" y1="803.9531" y2="794.9531"/><line style="stroke: #000000; stroke-width: 1.5;" x1="37" x2="157" y1="803.9531" y2="803.9531"/><line style="stroke: #000000; stroke-width: 1.5;" x1="157" x2="157" y1="803.9531" y2="1058.9531"/><text fill="#000000" font-family="sans-serif" font-size="14" font-weight="bold" lengthAdjust="spacingAndGlyphs" textLength="54" x="71" y="819.9482">macOS</text><!--entity editor--><rect fill="#FEFECE" filter="url(#f123ea0e6mvk0q)" height="36.2969" style="stroke: #A80036; stroke-width: 1.5;" width="60" x="42" y="238.4531"/><rect fill="#FEFECE" height="5" style="stroke: #A80036; stroke-width: 1.5;" width="10" x="37" y="243.4531"/><rect fill="#FEFECE" height="5" style="stroke: #A80036; stroke-width: 1.5;" width="10" x="37" y="264.75"/><text fill="#000000" font-family="sans-serif" font-size="14" lengthAdjust="spacingAndGlyphs" textLength="40" x="52" y="261.4482">Editor</text><!--entity blog_src_working--><rect fill="#FEFECE" filter="url(#f123ea0e6mvk0q)" height="52.5938" style="stroke: #A80036; stroke-width: 1.5;" width="128" x="38" y="359.9531"/><rect fill="#FEFECE" height="5" style="stroke: #A80036; stroke-width: 1.5;" width="10" x="33" y="364.9531"/><rect fill="#FEFECE" height="5" style="stroke: #A80036; stroke-width: 1.5;" width="10" x="33" y="402.5469"/><text fill="#000000" font-family="sans-serif" font-size="14" font-style="italic" lengthAdjust="spacingAndGlyphs" textLength="108" x="48" y="382.9482">«Source Code»</text><text fill="#000000" font-family="sans-serif" font-size="14" lengthAdjust="spacingAndGlyphs" textLength="100" x="52" y="399.2451">blog (Working)</text><!--entity blog_dev_local--><rect fill="#FEFECE" filter="url(#f123ea0e6mvk0q)" height="52.5938" style="stroke: #A80036; stroke-width: 1.5;" width="88" x="137" y="229.9531"/><rect fill="#FEFECE" height="5" style="stroke: #A80036; stroke-width: 1.5;" width="10" x="132" y="234.9531"/><rect fill="#FEFECE" height="5" style="stroke: #A80036; stroke-width: 1.5;" width="10" x="132" y="272.5469"/><text fill="#000000" font-family="sans-serif" font-size="14" font-style="italic" lengthAdjust="spacingAndGlyphs" textLength="68" x="147" y="252.9482">«Docker»</text><text fill="#000000" font-family="sans-serif" font-size="14" lengthAdjust="spacingAndGlyphs" textLength="60" x="151" y="269.2451">blog-dev</text><!--entity blog_local--><rect fill="#FEFECE" filter="url(#f123ea0e6mvk0q)" height="52.5938" style="stroke: #A80036; stroke-width: 1.5;" width="88" x="201" y="359.9531"/><rect fill="#FEFECE" height="5" style="stroke: #A80036; stroke-width: 1.5;" width="10" x="196" y="364.9531"/><rect fill="#FEFECE" height="5" style="stroke: #A80036; stroke-width: 1.5;" width="10" x="196" y="402.5469"/><text fill="#000000" font-family="sans-serif" font-size="14" font-style="italic" lengthAdjust="spacingAndGlyphs" textLength="68" x="211" y="382.9482">«Docker»</text><text fill="#000000" font-family="sans-serif" font-size="14" lengthAdjust="spacingAndGlyphs" textLength="30" x="230" y="399.2451">blog</text><!--entity blog_src--><rect fill="#FEFECE" filter="url(#f123ea0e6mvk0q)" height="52.5938" style="stroke: #A80036; stroke-width: 1.5;" width="128" x="38" y="517.9531"/><rect fill="#FEFECE" height="5" style="stroke: #A80036; stroke-width: 1.5;" width="10" x="33" y="522.9531"/><rect fill="#FEFECE" height="5" style="stroke: #A80036; stroke-width: 1.5;" width="10" x="33" y="560.5469"/><text fill="#000000" font-family="sans-serif" font-size="14" font-style="italic" lengthAdjust="spacingAndGlyphs" textLength="108" x="48" y="540.9482">«Source Code»</text><text fill="#000000" font-family="sans-serif" font-size="14" lengthAdjust="spacingAndGlyphs" textLength="30" x="87" y="557.2451">blog</text><!--entity blog_dev_circleci--><rect fill="#FEFECE" filter="url(#f123ea0e6mvk0q)" height="52.5938" style="stroke: #A80036; stroke-width: 1.5;" width="88" x="58" y="675.9531"/><rect fill="#FEFECE" height="5" style="stroke: #A80036; stroke-width: 1.5;" width="10" x="53" y="680.9531"/><rect fill="#FEFECE" height="5" style="stroke: #A80036; stroke-width: 1.5;" width="10" x="53" y="718.5469"/><text fill="#000000" font-family="sans-serif" font-size="14" font-style="italic" lengthAdjust="spacingAndGlyphs" textLength="68" x="68" y="698.9482">«Docker»</text><text fill="#000000" font-family="sans-serif" font-size="14" lengthAdjust="spacingAndGlyphs" textLength="60" x="72" y="715.2451">blog-dev</text><!--entity blog_circleci--><rect fill="#FEFECE" filter="url(#f123ea0e6mvk0q)" height="52.5938" style="stroke: #A80036; stroke-width: 1.5;" width="135" x="212.5" y="675.9531"/><rect fill="#FEFECE" height="5" style="stroke: #A80036; stroke-width: 1.5;" width="10" x="207.5" y="680.9531"/><rect fill="#FEFECE" height="5" style="stroke: #A80036; stroke-width: 1.5;" width="10" x="207.5" y="718.5469"/><text fill="#000000" font-family="sans-serif" font-size="14" font-style="italic" lengthAdjust="spacingAndGlyphs" textLength="115" x="222.5" y="698.9482">«Docker Image»</text><text fill="#000000" font-family="sans-serif" font-size="14" lengthAdjust="spacingAndGlyphs" textLength="30" x="265" y="715.2451">blog</text><!--entity blog_dockerhub--><rect fill="#FEFECE" filter="url(#f123ea0e6mvk0q)" height="52.5938" style="stroke: #A80036; stroke-width: 1.5;" width="135" x="209.5" y="989.9531"/><rect fill="#FEFECE" height="5" style="stroke: #A80036; stroke-width: 1.5;" width="10" x="204.5" y="994.9531"/><rect fill="#FEFECE" height="5" style="stroke: #A80036; stroke-width: 1.5;" width="10" x="204.5" y="1032.5469"/><text fill="#000000" font-family="sans-serif" font-size="14" font-style="italic" lengthAdjust="spacingAndGlyphs" textLength="115" x="219.5" y="1012.9482">«Docker Image»</text><text fill="#000000" font-family="sans-serif" font-size="14" lengthAdjust="spacingAndGlyphs" textLength="30" x="262" y="1029.2451">blog</text><!--entity jenkins--><rect fill="#FEFECE" filter="url(#f123ea0e6mvk0q)" height="52.5938" style="stroke: #A80036; stroke-width: 1.5;" width="88" x="58" y="833.9531"/><rect fill="#FEFECE" height="5" style="stroke: #A80036; stroke-width: 1.5;" width="10" x="53" y="838.9531"/><rect fill="#FEFECE" height="5" style="stroke: #A80036; stroke-width: 1.5;" width="10" x="53" y="876.5469"/><text fill="#000000" font-family="sans-serif" font-size="14" font-style="italic" lengthAdjust="spacingAndGlyphs" textLength="68" x="68" y="856.9482">«Docker»</text><text fill="#000000" font-family="sans-serif" font-size="14" lengthAdjust="spacingAndGlyphs" textLength="49" x="77.5" y="873.2451">Jenkins</text><!--entity blog--><rect fill="#FEFECE" filter="url(#f123ea0e6mvk0q)" height="52.5938" style="stroke: #A80036; stroke-width: 1.5;" width="88" x="58" y="989.9531"/><rect fill="#FEFECE" height="5" style="stroke: #A80036; stroke-width: 1.5;" width="10" x="53" y="994.9531"/><rect fill="#FEFECE" height="5" style="stroke: #A80036; stroke-width: 1.5;" width="10" x="53" y="1032.5469"/><text fill="#000000" font-family="sans-serif" font-size="14" font-style="italic" lengthAdjust="spacingAndGlyphs" textLength="68" x="68" y="1012.9482">«Docker»</text><text fill="#000000" font-family="sans-serif" font-size="14" lengthAdjust="spacingAndGlyphs" textLength="30" x="87" y="1029.2451">blog</text><!--entity author--><ellipse cx="227" cy="53.9531" fill="#FEFECE" filter="url(#f123ea0e6mvk0q)" rx="8" ry="8" style="stroke: #A80036; stroke-width: 2.0;"/><path d="M227,61.9531 L227,88.9531 M214,69.9531 L240,69.9531 M227,88.9531 L214,103.9531 M227,88.9531 L240,103.9531 " fill="none" filter="url(#f123ea0e6mvk0q)" style="stroke: #A80036; stroke-width: 2.0;"/><text fill="#000000" font-family="sans-serif" font-size="14" lengthAdjust="spacingAndGlyphs" textLength="46" x="204" y="123.9482">Author</text><!--entity reader--><ellipse cx="102" cy="1131.9531" fill="#FEFECE" filter="url(#f123ea0e6mvk0q)" rx="8" ry="8" style="stroke: #A80036; stroke-width: 2.0;"/><path d="M102,1139.9531 L102,1166.9531 M89,1147.9531 L115,1147.9531 M102,1166.9531 L89,1181.9531 M102,1166.9531 L115,1181.9531 " fill="none" filter="url(#f123ea0e6mvk0q)" style="stroke: #A80036; stroke-width: 2.0;"/><text fill="#000000" font-family="sans-serif" font-size="14" lengthAdjust="spacingAndGlyphs" textLength="50" x="77" y="1201.9482">Reader</text><!--link author to editor--><path d="M203.813,103.8331 C180.716,121.8331 145.038,151.5231 119,181.9531 C105.2559,198.0131 92.5288,218.4071 83.7946,233.6361 " fill="none" id="author-editor" style="stroke: #A80036; stroke-width: 1.0;"/><polygon fill="#A80036" points="81.2155,238.1861,89.1335,232.3291,83.6812,233.8364,82.1739,228.384,81.2155,238.1861" style="stroke: #A80036; stroke-width: 1.0;"/><text fill="#000000" font-family="sans-serif" font-size="13" lengthAdjust="spacingAndGlyphs" textLength="23" x="142" y="170.02">use</text><!--link editor to blog_src_working--><path d="M76.0459,274.7161 C80.844,295.1871 88.93,329.6881 94.8035,354.7481 " fill="none" id="editor-blog_src_working" style="stroke: #A80036; stroke-width: 1.0;"/><polygon fill="#A80036" points="95.9471,359.6271,97.787,349.9516,94.8057,354.7591,89.9982,351.7779,95.9471,359.6271" style="stroke: #A80036; stroke-width: 1.0;"/><text fill="#000000" font-family="sans-serif" font-size="13" lengthAdjust="spacingAndGlyphs" textLength="24" x="90" y="326.02">edit</text><!--link blog_dev_local to blog_src_working--><path d="M165.203,283.0481 C152.286,303.9771 134.002,333.6021 120.42,355.6081 " fill="none" id="blog_dev_local-blog_src_working" style="stroke: #A80036; stroke-width: 1.0;"/><polygon fill="#A80036" points="117.77,359.9021,125.9013,354.345,120.3965,355.6475,119.0939,350.1427,117.77,359.9021" style="stroke: #A80036; stroke-width: 1.0;"/><text fill="#000000" font-family="sans-serif" font-size="13" lengthAdjust="spacingAndGlyphs" textLength="23" x="148" y="326.02">use</text><!--link blog_dev_local to blog_local--><path d="M193.798,283.0481 C204.219,303.8901 218.951,333.3551 229.94,355.3321 " fill="none" id="blog_dev_local-blog_local" style="stroke: #A80036; stroke-width: 1.0;"/><polygon fill="#A80036" points="232.225,359.9021,231.7765,350.0635,229.9884,355.4303,224.6216,353.6421,232.225,359.9021" style="stroke: #A80036; stroke-width: 1.0;"/><text fill="#000000" font-family="sans-serif" font-size="13" lengthAdjust="spacingAndGlyphs" textLength="30" x="218" y="326.02">build</text><!--link author to blog_local--><path d="M234.264,127.1931 C241.886,172.4031 253.271,247.6101 257,312.9531 C257.43,320.4961 257.803,322.4401 257,329.9531 C256.124,338.1521 254.539,346.9171 252.803,355.0051 " fill="none" id="author-blog_local" style="stroke: #A80036; stroke-width: 1.0;"/><polygon fill="#A80036" points="251.707,359.9411,257.5612,352.021,252.7898,355.0598,249.751,350.2884,251.707,359.9411" style="stroke: #A80036; stroke-width: 1.0;"/><text fill="#000000" font-family="sans-serif" font-size="13" lengthAdjust="spacingAndGlyphs" textLength="70" x="256" y="261.02">demo read</text><!--link blog_src_working to blog_src--><path d="M102,413.2131 C102,440.5051 102,483.5901 102,512.6561 " fill="none" id="blog_src_working-blog_src" style="stroke: #A80036; stroke-width: 1.0;"/><polygon fill="#A80036" points="102,517.9141,106,508.9141,102,512.9141,98,508.9141,102,517.9141" style="stroke: #A80036; stroke-width: 1.0;"/><text fill="#000000" font-family="sans-serif" font-size="13" lengthAdjust="spacingAndGlyphs" textLength="51" x="103" y="458.02">git push</text><!--link blog_src to blog_dev_circleci--><path d="M102,571.2131 C102,598.5051 102,641.5901 102,670.6561 " fill="none" id="blog_src-blog_dev_circleci" style="stroke: #A80036; stroke-width: 1.0;"/><polygon fill="#A80036" points="102,675.9141,106,666.9141,102,670.9141,98,666.9141,102,675.9141" style="stroke: #A80036; stroke-width: 1.0;"/><text fill="#000000" font-family="sans-serif" font-size="13" lengthAdjust="spacingAndGlyphs" textLength="56" x="103" y="616.02">webhook</text><!--link blog_dev_circleci to blog_circleci--><path d="M146,702.4531 C164.412,702.4531 186.311,702.4531 207.015,702.4531 " fill="none" id="blog_dev_circleci-blog_circleci" style="stroke: #A80036; stroke-width: 1.0;"/><polygon fill="#A80036" points="212.25,702.4531,203.25,698.4531,207.25,702.4531,203.25,706.4531,212.25,702.4531" style="stroke: #A80036; stroke-width: 1.0;"/><text fill="#000000" font-family="sans-serif" font-size="13" lengthAdjust="spacingAndGlyphs" textLength="30" x="164.25" y="695.52">build</text><!--link blog_dev_circleci to jenkins--><path d="M102,729.2131 C102,756.5051 102,799.5901 102,828.6561 " fill="none" id="blog_dev_circleci-jenkins" style="stroke: #A80036; stroke-width: 1.0;"/><polygon fill="#A80036" points="102,833.9141,106,824.9141,102,828.9141,98,824.9141,102,833.9141" style="stroke: #A80036; stroke-width: 1.0;"/><text fill="#000000" font-family="sans-serif" font-size="13" lengthAdjust="spacingAndGlyphs" textLength="56" x="103" y="774.02">webhook</text><!--link blog_circleci to blog_dockerhub--><path d="M279.754,728.9851 C279.207,785.8911 277.889,922.9541 277.297,984.5551 " fill="none" id="blog_circleci-blog_dockerhub" style="stroke: #A80036; stroke-width: 1.0;"/><polygon fill="#A80036" points="277.249,989.5681,281.3362,980.6074,277.2976,984.5684,273.3366,980.5297,277.249,989.5681" style="stroke: #A80036; stroke-width: 1.0;"/><text fill="#000000" font-family="sans-serif" font-size="13" lengthAdjust="spacingAndGlyphs" textLength="78" x="280" y="865.02">docker push</text><!--link jenkins to blog_dockerhub--><path d="M130.392,887.0631 C145.887,900.9901 165.44,918.4831 183,933.9531 C202.889,951.4741 225.311,970.9261 243.266,986.4301 " fill="none" id="jenkins-blog_dockerhub" style="stroke: #A80036; stroke-width: 1.0;"/><polygon fill="#A80036" points="247.26,989.8781,243.0599,980.9697,243.4747,986.6114,237.8331,987.0262,247.26,989.8781" style="stroke: #A80036; stroke-width: 1.0;"/><text fill="#000000" font-family="sans-serif" font-size="13" lengthAdjust="spacingAndGlyphs" textLength="69" x="184" y="930.02">docker pull</text><!--link jenkins to blog--><path d="M99.7625,887.1291 C99.0476,896.5071 98.3509,907.2021 98,916.9531 C97.1842,939.6221 98.2853,965.2211 99.5371,984.6391 " fill="none" id="jenkins-blog" style="stroke: #A80036; stroke-width: 1.0;"/><polygon fill="#A80036" points="99.8927,989.9451,103.282,980.6978,99.5584,984.9563,95.2999,981.2327,99.8927,989.9451" style="stroke: #A80036; stroke-width: 1.0;"/><text fill="#000000" font-family="sans-serif" font-size="13" lengthAdjust="spacingAndGlyphs" textLength="43" x="99" y="930.02">restart</text><!--link blog to reader--><path d="M102,1048.0511 C102,1069.5011 102,1098.4021 102,1121.7883 " fill="none" id="blog-reader" style="stroke: #A80036; stroke-width: 1.0;"/><polygon fill="#A80036" points="102,1043.0421,98,1052.0421,102,1048.0421,106,1052.0421,102,1043.0421" style="stroke: #A80036; stroke-width: 1.0;"/><text fill="#000000" font-family="sans-serif" font-size="13" lengthAdjust="spacingAndGlyphs" textLength="29" x="103" y="1088.02">read</text><!--
@startuml


skinparam titleBorderColor black
skinparam titleBorderThickness 1
skinparam titleBorderRoundCorner 15

title u6k.Blog Publish Workflow

actor "Author" as author
actor "Reader" as reader

node "Local PC" {
    component "Editor" as editor
    component "blog (Working)" <<Source Code>> as blog_src_working
    component "blog-dev" <<Docker>> as blog_dev_local
    component "blog" <<Docker>> as blog_local
}

node "GitHub" {
    component "blog" <<Source Code>> as blog_src
}

node "CircleCI" {
    component "blog-dev" <<Docker>> as blog_dev_circleci
    component "blog" <<Docker Image>> as blog_circleci
}

node "Docker Hub" {
    component "blog" <<Docker Image>> as blog_dockerhub
}

node "macOS" {
    component "Jenkins" <<Docker>> as jenkins
    component "blog" <<Docker>> as blog
}

author - -> editor : use
editor - -> blog_src_working : edit
blog_dev_local - -> blog_src_working  : use
blog_dev_local - -> blog_local : build
author - -> blog_local : demo read

blog_src_working - -> blog_src : git push

blog_src - -> blog_dev_circleci : webhook
blog_dev_circleci -right-> blog_circleci : build
blog_dev_circleci - -> jenkins : webhook

blog_circleci - -> blog_dockerhub : docker push

jenkins - -> blog_dockerhub : docker pull
jenkins - -> blog : restart

reader -up-> blog : read


@enduml

PlantUML version 1.2018.08(Sun Jun 24 21:31:00 JST 2018)
(GPL source distribution)
Java Runtime: OpenJDK Runtime Environment
JVM: OpenJDK 64-Bit Server VM
Java Version: 1.8.0_171-8u171-b11-1~deb9u1-b11
Operating System: Linux
OS Version: 4.9.87-linuxkit-aufs
Default Encoding: UTF-8
Language: en
Country: US
--></g></svg>