<?xml version="1.0" encoding="UTF-8" standalone="no"?><svg xmlns="http://www.w3.org/2000/svg" xmlns:xlink="http://www.w3.org/1999/xlink" contentScriptType="application/ecmascript" contentStyleType="text/css" height="1070px" preserveAspectRatio="none" style="width:605px;height:1070px;" version="1.1" viewBox="0 0 605 1070" width="605px" zoomAndPan="magnify"><defs><filter height="300%" id="f1p5zafeybecnh" width="300%" x="-1" y="-1"><feGaussianBlur result="blurOut" stdDeviation="2.0"/><feColorMatrix in="blurOut" result="blurOut2" type="matrix" values="0 0 0 0 0 0 0 0 0 0 0 0 0 0 0 0 0 0 .4 0"/><feOffset dx="4.0" dy="4.0" in="blurOut2" result="blurOut3"/><feBlend in="SourceGraphic" in2="blurOut3" mode="normal"/></filter></defs><g><!--cluster 開発PC--><polygon fill="#FFFFFF" filter="url(#f1p5zafeybecnh)" points="396,164,406,154,536,154,536,358,526,368,396,368,396,164" style="stroke: #000000; stroke-width: 1.5;"/><line style="stroke: #000000; stroke-width: 1.5;" x1="526" x2="535" y1="164" y2="155"/><line style="stroke: #000000; stroke-width: 1.5;" x1="396" x2="526" y1="164" y2="164"/><line style="stroke: #000000; stroke-width: 1.5;" x1="526" x2="526" y1="164" y2="368"/><text fill="#000000" font-family="sans-serif" font-size="14" font-weight="bold" lengthAdjust="spacingAndGlyphs" textLength="37" x="443.5" y="179.9951">開発PC</text><!--cluster 本番サーバー--><polygon fill="#FFFFFF" filter="url(#f1p5zafeybecnh)" points="184,680,194,670,360,670,360,893,350,903,184,903,184,680" style="stroke: #000000; stroke-width: 1.5;"/><line style="stroke: #000000; stroke-width: 1.5;" x1="350" x2="359" y1="680" y2="671"/><line style="stroke: #000000; stroke-width: 1.5;" x1="184" x2="350" y1="680" y2="680"/><line style="stroke: #000000; stroke-width: 1.5;" x1="350" x2="350" y1="680" y2="903"/><text fill="#000000" font-family="sans-serif" font-size="14" font-weight="bold" lengthAdjust="spacingAndGlyphs" textLength="48" x="244" y="695.9951">本番サーバー</text><!--entity docker_dev--><rect fill="#FEFECE" filter="url(#f1p5zafeybecnh)" height="36.2969" style="stroke: #A80036; stroke-width: 1.5;" width="70" x="435" y="194"/><rect fill="#FEFECE" height="5" style="stroke: #A80036; stroke-width: 1.5;" width="10" x="430" y="199"/><rect fill="#FEFECE" height="5" style="stroke: #A80036; stroke-width: 1.5;" width="10" x="430" y="220.2969"/><text fill="#000000" font-family="sans-serif" font-size="14" lengthAdjust="spacingAndGlyphs" textLength="50" x="445" y="216.9951">Docker</text><!--entity git--><path d="M412,317 C412,307 466,307 466,307 C466,307 520,307 520,317 L520,342.2969 C520,352.2969 466,352.2969 466,352.2969 C466,352.2969 412,352.2969 412,342.2969 L412,317 " fill="#FEFECE" filter="url(#f1p5zafeybecnh)" style="stroke: #000000; stroke-width: 1.5;"/><path d="M412,317 C412,327 466,327 466,327 C466,327 520,327 520,317 " fill="none" style="stroke: #000000; stroke-width: 1.5;"/><text fill="#000000" font-family="sans-serif" font-size="14" lengthAdjust="spacingAndGlyphs" textLength="88" x="422" y="343.9951">local git repo</text><!--entity rundeck--><rect fill="#FEFECE" filter="url(#f1p5zafeybecnh)" height="36.2969" style="stroke: #A80036; stroke-width: 1.5;" width="82" x="231" y="710"/><rect fill="#FEFECE" height="5" style="stroke: #A80036; stroke-width: 1.5;" width="10" x="226" y="715"/><rect fill="#FEFECE" height="5" style="stroke: #A80036; stroke-width: 1.5;" width="10" x="226" y="736.2969"/><text fill="#000000" font-family="sans-serif" font-size="14" lengthAdjust="spacingAndGlyphs" textLength="62" x="241" y="732.9951">Rundeck</text><!--entity docker_pro--><rect fill="#FEFECE" filter="url(#f1p5zafeybecnh)" height="36.2969" style="stroke: #A80036; stroke-width: 1.5;" width="70" x="200" y="851"/><rect fill="#FEFECE" height="5" style="stroke: #A80036; stroke-width: 1.5;" width="10" x="195" y="856"/><rect fill="#FEFECE" height="5" style="stroke: #A80036; stroke-width: 1.5;" width="10" x="195" y="877.2969"/><text fill="#000000" font-family="sans-serif" font-size="14" lengthAdjust="spacingAndGlyphs" textLength="50" x="210" y="873.9951">Docker</text><!--entity developer--><ellipse cx="539" cy="18" fill="#FEFECE" filter="url(#f1p5zafeybecnh)" rx="8" ry="8" style="stroke: #A80036; stroke-width: 2.0;"/><path d="M539,26 L539,53 M526,34 L552,34 M539,53 L526,68 M539,53 L552,68 " fill="none" filter="url(#f1p5zafeybecnh)" style="stroke: #A80036; stroke-width: 2.0;"/><text fill="#000000" font-family="sans-serif" font-size="14" lengthAdjust="spacingAndGlyphs" textLength="24" x="527" y="87.9951">開発者</text><!--entity user--><ellipse cx="235" cy="987" fill="#FEFECE" filter="url(#f1p5zafeybecnh)" rx="8" ry="8" style="stroke: #A80036; stroke-width: 2.0;"/><path d="M235,995 L235,1022 M222,1003 L248,1003 M235,1022 L222,1037 M235,1022 L248,1037 " fill="none" filter="url(#f1p5zafeybecnh)" style="stroke: #A80036; stroke-width: 2.0;"/><text fill="#000000" font-family="sans-serif" font-size="14" lengthAdjust="spacingAndGlyphs" textLength="24" x="223" y="1056.9951">利用者</text><!--entity github--><path d="M404,441 C404,431 447,431 447,431 C447,431 490,431 490,441 L490,482.5938 C490,492.5938 447,492.5938 447,492.5938 C447,492.5938 404,492.5938 404,482.5938 L404,441 " fill="#FEFECE" filter="url(#f1p5zafeybecnh)" style="stroke: #000000; stroke-width: 1.5;"/><path d="M404,441 C404,451 447,451 447,451 C447,451 490,451 490,441 " fill="none" style="stroke: #000000; stroke-width: 1.5;"/><text fill="#000000" font-family="sans-serif" font-size="14" font-style="italic" lengthAdjust="spacingAndGlyphs" textLength="66" x="414" y="467.9951">«外部サービス»</text><text fill="#000000" font-family="sans-serif" font-size="14" lengthAdjust="spacingAndGlyphs" textLength="47" x="423.5" y="484.292">GitHub</text><!--entity travisci--><rect fill="#FEFECE" filter="url(#f1p5zafeybecnh)" height="52.5938" style="stroke: #A80036; stroke-width: 1.5;" width="86" x="309" y="554"/><rect fill="#FEFECE" height="5" style="stroke: #A80036; stroke-width: 1.5;" width="10" x="304" y="559"/><rect fill="#FEFECE" height="5" style="stroke: #A80036; stroke-width: 1.5;" width="10" x="304" y="596.5938"/><text fill="#000000" font-family="sans-serif" font-size="14" font-style="italic" lengthAdjust="spacingAndGlyphs" textLength="66" x="319" y="576.9951">«外部サービス»</text><text fill="#000000" font-family="sans-serif" font-size="14" lengthAdjust="spacingAndGlyphs" textLength="53" x="325.5" y="593.292">TravisCI</text><!--entity docker_hub--><path d="M6,848 C6,838 57,838 57,838 C57,838 108,838 108,848 L108,889.5938 C108,899.5938 57,899.5938 57,899.5938 C57,899.5938 6,899.5938 6,889.5938 L6,848 " fill="#FEFECE" filter="url(#f1p5zafeybecnh)" style="stroke: #000000; stroke-width: 1.5;"/><path d="M6,848 C6,858 57,858 57,858 C57,858 108,858 108,848 " fill="none" style="stroke: #000000; stroke-width: 1.5;"/><text fill="#000000" font-family="sans-serif" font-size="14" font-style="italic" lengthAdjust="spacingAndGlyphs" textLength="66" x="24" y="874.9951">«外部サービス»</text><text fill="#000000" font-family="sans-serif" font-size="14" lengthAdjust="spacingAndGlyphs" textLength="82" x="16" y="891.292">Docker Hub</text><!--entity slack--><rect fill="#FEFECE" filter="url(#f1p5zafeybecnh)" height="36.2969" style="stroke: #A80036; stroke-width: 1.5;" width="56" x="437" y="851"/><rect fill="#FEFECE" height="5" style="stroke: #A80036; stroke-width: 1.5;" width="10" x="432" y="856"/><rect fill="#FEFECE" height="5" style="stroke: #A80036; stroke-width: 1.5;" width="10" x="432" y="877.2969"/><text fill="#000000" font-family="sans-serif" font-size="14" lengthAdjust="spacingAndGlyphs" textLength="36" x="447" y="873.9951">Slack</text><!--link developer to docker_dev--><path d="M523.858,85.722 C510.338,117.169 490.956,162.255 479.504,188.892 " fill="none" id="developer-docker_dev" style="stroke: #A80036; stroke-width: 1.0;"/><polygon fill="#A80036" points="477.462,193.644,484.6911,186.9552,479.4366,189.0504,477.3414,183.7959,477.462,193.644" style="stroke: #A80036; stroke-width: 1.0;"/><text fill="#000000" font-family="sans-serif" font-size="13" lengthAdjust="spacingAndGlyphs" textLength="16" x="510" y="134.0669">開発</text><!--link docker_dev to git--><path d="M469.41,230.042 C468.706,250.374 467.527,284.401 466.757,306.648 " fill="none" id="docker_dev-git" style="stroke: #A80036; stroke-width: 1.0;"/><text fill="#000000" font-family="sans-serif" font-size="13" lengthAdjust="spacingAndGlyphs" textLength="69" x="470" y="273.0669">git commit</text><!--link git to github--><path d="M462.863,352.049 C459.962,371.971 455.597,401.952 452.18,425.423 " fill="none" id="git-github" style="stroke: #A80036; stroke-width: 1.0;"/><polygon fill="#A80036" points="451.422,430.63,456.6761,422.2997,452.1419,425.6821,448.7595,421.1479,451.422,430.63" style="stroke: #A80036; stroke-width: 1.0;"/><text fill="#000000" font-family="sans-serif" font-size="13" lengthAdjust="spacingAndGlyphs" textLength="51" x="460" y="397.0669">git push</text><!--link github to travisci--><path d="M422.535,493.002 C408.224,510.551 390.232,532.615 376.002,550.066 " fill="none" id="github-travisci" style="stroke: #A80036; stroke-width: 1.0;"/><polygon fill="#A80036" points="372.841,553.943,381.6284,549.4953,376.0006,550.0678,375.4281,544.44,372.841,553.943" style="stroke: #A80036; stroke-width: 1.0;"/><!--link travisci to docker_hub--><path d="M308.95,583.19 C253.471,587.759 157.779,604.143 104,662 C60.4734,708.827 54.4285,787.372 55.0044,832.745 " fill="none" id="travisci-docker_hub" style="stroke: #A80036; stroke-width: 1.0;"/><polygon fill="#A80036" points="55.0987,837.839,58.9309,828.7663,55.0058,832.8399,50.9322,828.9148,55.0987,837.839" style="stroke: #A80036; stroke-width: 1.0;"/><text fill="#000000" font-family="sans-serif" font-size="13" lengthAdjust="spacingAndGlyphs" textLength="78" x="105" y="732.5669">docker push</text><!--link travisci to slack--><path d="M366.099,607.219 C385.666,643.793 421.11,713.355 443,776 C451.121,799.24 457.275,826.809 460.981,845.668 " fill="none" id="travisci-slack" style="stroke: #A80036; stroke-width: 1.0;"/><polygon fill="#A80036" points="461.961,850.746,464.1834,841.1512,461.0137,845.8366,456.3283,842.6669,461.961,850.746" style="stroke: #A80036; stroke-width: 1.0;"/><text fill="#000000" font-family="sans-serif" font-size="13" lengthAdjust="spacingAndGlyphs" textLength="56" x="433" y="732.5669">ビルド結果通知</text><!--link developer to slack--><path d="M555.312,96.135 C565.231,127.912 576,171.506 576,211 C576,211 576,211 576,729 C576,782.735 524.721,827.639 491.87,850.892 " fill="none" id="developer-slack" style="stroke: #A80036; stroke-width: 1.0;"/><polygon fill="#A80036" points="553.73,91.14,552.6353,100.9278,555.2402,95.9065,560.2616,98.5114,553.73,91.14" style="stroke: #A80036; stroke-width: 1.0;"/><text fill="#000000" font-family="sans-serif" font-size="13" lengthAdjust="spacingAndGlyphs" textLength="16" x="577" y="466.5669">通知</text><!--link travisci to rundeck--><path d="M337.882,607.178 C322.595,634.98 298.471,678.856 284.046,705.092 " fill="none" id="travisci-rundeck" style="stroke: #A80036; stroke-width: 1.0;"/><polygon fill="#A80036" points="281.47,709.777,289.3109,703.8171,283.8787,705.3954,282.3003,699.9632,281.47,709.777" style="stroke: #A80036; stroke-width: 1.0;"/><text fill="#000000" font-family="sans-serif" font-size="13" lengthAdjust="spacingAndGlyphs" textLength="40" x="321" y="650.0669">ジョブ起動</text><!--link rundeck to docker_hub--><path d="M230.854,732.364 C195.566,737.106 145.021,748.524 110,776 C89.8417,791.815 75.9489,817.579 67.4606,837.826 " fill="none" id="rundeck-docker_hub" style="stroke: #A80036; stroke-width: 1.0;"/><text fill="#000000" font-family="sans-serif" font-size="13" lengthAdjust="spacingAndGlyphs" textLength="107" x="111" y="789.0669">docker-compose</text><text fill="#000000" font-family="sans-serif" font-size="13" lengthAdjust="spacingAndGlyphs" textLength="22" x="153.5" y="804.1997">pull</text><!--link rundeck to docker_pro--><path d="M252.203,746.193 C244.318,754.334 236.144,764.738 232,776 C223.678,798.62 226.203,826.519 229.682,845.626 " fill="none" id="rundeck-docker_pro" style="stroke: #A80036; stroke-width: 1.0;"/><polygon fill="#A80036" points="230.681,850.77,232.8926,841.1727,229.7282,845.8616,225.0392,842.6972,230.681,850.77" style="stroke: #A80036; stroke-width: 1.0;"/><text fill="#000000" font-family="sans-serif" font-size="13" lengthAdjust="spacingAndGlyphs" textLength="107" x="233" y="789.0669">docker-compose</text><text fill="#000000" font-family="sans-serif" font-size="13" lengthAdjust="spacingAndGlyphs" textLength="16" x="278.5" y="804.1997">up</text><!--link rundeck to slack--><path d="M300.77,746.091 C314.498,754.603 330.953,765.336 345,776 C362.051,788.944 364.266,794.649 381,808 C398.415,821.895 418.724,836.443 435.01,847.734 " fill="none" id="rundeck-slack" style="stroke: #A80036; stroke-width: 1.0;"/><polygon fill="#A80036" points="439.491,850.829,434.3585,842.4232,435.3768,847.9876,429.8123,849.0059,439.491,850.829" style="stroke: #A80036; stroke-width: 1.0;"/><text fill="#000000" font-family="sans-serif" font-size="13" lengthAdjust="spacingAndGlyphs" textLength="56" x="382" y="796.5669">ジョブ結果通知</text><!--link docker_pro to user--><path d="M235,892.327 C235,914.655 235,949.503 235,976.7656 " fill="none" id="docker_pro-user" style="stroke: #A80036; stroke-width: 1.0;"/><polygon fill="#A80036" points="235,887.209,231,896.209,235,892.209,239,896.209,235,887.209" style="stroke: #A80036; stroke-width: 1.0;"/><text fill="#000000" font-family="sans-serif" font-size="13" lengthAdjust="spacingAndGlyphs" textLength="48" x="236" y="943.0669">サービス利用</text><!--
@startuml

actor "開発者" as developer
actor "利用者" as user
node "開発PC" {
  [Docker] as docker_dev
  database "local git repo" as git
}
database "GitHub" <<外部サービス>> as github
[TravisCI] <<外部サービス>> as travisci
database "Docker Hub" <<外部サービス>> as docker_hub
[Slack] as slack
node "本番サーバー" {
  [Rundeck] as rundeck
  [Docker] as docker_pro
}

developer -d-> docker_dev : 開発
docker_dev - - git : git commit
git - -> github : git push
github - -> travisci
travisci - -> docker_hub : docker push
travisci - -> slack : ビルド結果通知
slack -l-> developer : 通知
travisci - -> rundeck : ジョブ起動
rundeck - - docker_hub : docker-compose\npull
rundeck - -> docker_pro : docker-compose\nup
rundeck - -> slack : ジョブ結果通知
user -u-> docker_pro : サービス利用

@enduml

PlantUML version 1.2019.00(Mon Jan 14 00:46:42 JST 2019)
(GPL source distribution)
Java Runtime: OpenJDK Runtime Environment
JVM: OpenJDK 64-Bit Server VM
Java Version: 1.8.0_181-8u181-b13-2~deb9u1-b13
Operating System: Linux
OS Version: 4.9.0-8-amd64
Default Encoding: UTF-8
Language: en
Country: US
--></g></svg>