<?xml version="1.0" encoding="UTF-8" standalone="no"?><svg xmlns="http://www.w3.org/2000/svg" xmlns:xlink="http://www.w3.org/1999/xlink" contentScriptType="application/ecmascript" contentStyleType="text/css" height="378px" preserveAspectRatio="none" style="width:1129px;height:378px;" version="1.1" viewBox="0 0 1129 378" width="1129px" zoomAndPan="magnify"><defs><filter height="300%" id="f16y8y7obg6aku" width="300%" x="-1" y="-1"><feGaussianBlur result="blurOut" stdDeviation="2.0"/><feColorMatrix in="blurOut" result="blurOut2" type="matrix" values="0 0 0 0 0 0 0 0 0 0 0 0 0 0 0 0 0 0 .4 0"/><feOffset dx="4.0" dy="4.0" in="blurOut2" result="blurOut3"/><feBlend in="SourceGraphic" in2="blurOut3" mode="normal"/></filter></defs><g><!--entity nginx-proxy--><rect fill="#FEFECE" filter="url(#f16y8y7obg6aku)" height="36.2969" style="stroke: #A80036; stroke-width: 1.5;" width="99" x="561" y="8"/><rect fill="#FEFECE" height="5" style="stroke: #A80036; stroke-width: 1.5;" width="10" x="556" y="13"/><rect fill="#FEFECE" height="5" style="stroke: #A80036; stroke-width: 1.5;" width="10" x="556" y="34.2969"/><text fill="#000000" font-family="sans-serif" font-size="14" lengthAdjust="spacingAndGlyphs" textLength="79" x="571" y="30.9951">nginx-proxy</text><!--entity letsencrypt-nginx-proxy-companion--><rect fill="#FEFECE" filter="url(#f16y8y7obg6aku)" height="36.2969" style="stroke: #A80036; stroke-width: 1.5;" width="263" x="6" y="121"/><rect fill="#FEFECE" height="5" style="stroke: #A80036; stroke-width: 1.5;" width="10" x="1" y="126"/><rect fill="#FEFECE" height="5" style="stroke: #A80036; stroke-width: 1.5;" width="10" x="1" y="147.2969"/><text fill="#000000" font-family="sans-serif" font-size="14" lengthAdjust="spacingAndGlyphs" textLength="243" x="16" y="143.9951">letsencrypt-nginx-proxy-companion</text><!--entity redmine--><rect fill="#FEFECE" filter="url(#f16y8y7obg6aku)" height="36.2969" style="stroke: #A80036; stroke-width: 1.5;" width="77" x="329" y="234"/><rect fill="#FEFECE" height="5" style="stroke: #A80036; stroke-width: 1.5;" width="10" x="324" y="239"/><rect fill="#FEFECE" height="5" style="stroke: #A80036; stroke-width: 1.5;" width="10" x="324" y="260.2969"/><text fill="#000000" font-family="sans-serif" font-size="14" lengthAdjust="spacingAndGlyphs" textLength="57" x="339" y="256.9951">redmine</text><!--entity blog--><rect fill="#FEFECE" filter="url(#f16y8y7obg6aku)" height="36.2969" style="stroke: #A80036; stroke-width: 1.5;" width="50" x="481.5" y="121"/><rect fill="#FEFECE" height="5" style="stroke: #A80036; stroke-width: 1.5;" width="10" x="476.5" y="126"/><rect fill="#FEFECE" height="5" style="stroke: #A80036; stroke-width: 1.5;" width="10" x="476.5" y="147.2969"/><text fill="#000000" font-family="sans-serif" font-size="14" lengthAdjust="spacingAndGlyphs" textLength="30" x="491.5" y="143.9951">blog</text><!--entity owncloud--><rect fill="#FEFECE" filter="url(#f16y8y7obg6aku)" height="36.2969" style="stroke: #A80036; stroke-width: 1.5;" width="87" x="567" y="121"/><rect fill="#FEFECE" height="5" style="stroke: #A80036; stroke-width: 1.5;" width="10" x="562" y="126"/><rect fill="#FEFECE" height="5" style="stroke: #A80036; stroke-width: 1.5;" width="10" x="562" y="147.2969"/><text fill="#000000" font-family="sans-serif" font-size="14" lengthAdjust="spacingAndGlyphs" textLength="67" x="577" y="143.9951">owncloud</text><!--entity jenkins--><rect fill="#FEFECE" filter="url(#f16y8y7obg6aku)" height="36.2969" style="stroke: #A80036; stroke-width: 1.5;" width="69" x="689" y="121"/><rect fill="#FEFECE" height="5" style="stroke: #A80036; stroke-width: 1.5;" width="10" x="684" y="126"/><rect fill="#FEFECE" height="5" style="stroke: #A80036; stroke-width: 1.5;" width="10" x="684" y="147.2969"/><text fill="#000000" font-family="sans-serif" font-size="14" lengthAdjust="spacingAndGlyphs" textLength="49" x="699" y="143.9951">jenkins</text><!--entity bookmark--><rect fill="#FEFECE" filter="url(#f16y8y7obg6aku)" height="36.2969" style="stroke: #A80036; stroke-width: 1.5;" width="89" x="913" y="234"/><rect fill="#FEFECE" height="5" style="stroke: #A80036; stroke-width: 1.5;" width="10" x="908" y="239"/><rect fill="#FEFECE" height="5" style="stroke: #A80036; stroke-width: 1.5;" width="10" x="908" y="260.2969"/><text fill="#000000" font-family="sans-serif" font-size="14" lengthAdjust="spacingAndGlyphs" textLength="69" x="923" y="256.9951">bookmark</text><!--entity narou-crawler--><rect fill="#FEFECE" filter="url(#f16y8y7obg6aku)" height="36.2969" style="stroke: #A80036; stroke-width: 1.5;" width="114" x="540.5" y="234"/><rect fill="#FEFECE" height="5" style="stroke: #A80036; stroke-width: 1.5;" width="10" x="535.5" y="239"/><rect fill="#FEFECE" height="5" style="stroke: #A80036; stroke-width: 1.5;" width="10" x="535.5" y="260.2969"/><text fill="#000000" font-family="sans-serif" font-size="14" lengthAdjust="spacingAndGlyphs" textLength="94" x="550.5" y="256.9951">narou-crawler</text><!--entity narou-crawler-db--><rect fill="#FEFECE" filter="url(#f16y8y7obg6aku)" height="36.2969" style="stroke: #A80036; stroke-width: 1.5;" width="137" x="491" y="331"/><rect fill="#FEFECE" height="5" style="stroke: #A80036; stroke-width: 1.5;" width="10" x="486" y="336"/><rect fill="#FEFECE" height="5" style="stroke: #A80036; stroke-width: 1.5;" width="10" x="486" y="357.2969"/><text fill="#000000" font-family="sans-serif" font-size="14" lengthAdjust="spacingAndGlyphs" textLength="117" x="501" y="353.9951">narou-crawler-db</text><!--entity minio--><rect fill="#FEFECE" filter="url(#f16y8y7obg6aku)" height="36.2969" style="stroke: #A80036; stroke-width: 1.5;" width="57" x="690" y="331"/><rect fill="#FEFECE" height="5" style="stroke: #A80036; stroke-width: 1.5;" width="10" x="685" y="336"/><rect fill="#FEFECE" height="5" style="stroke: #A80036; stroke-width: 1.5;" width="10" x="685" y="357.2969"/><text fill="#000000" font-family="sans-serif" font-size="14" lengthAdjust="spacingAndGlyphs" textLength="37" x="700" y="353.9951">minio</text><!--entity ceron-analyze--><rect fill="#FEFECE" filter="url(#f16y8y7obg6aku)" height="36.2969" style="stroke: #A80036; stroke-width: 1.5;" width="117" x="761" y="234"/><rect fill="#FEFECE" height="5" style="stroke: #A80036; stroke-width: 1.5;" width="10" x="756" y="239"/><rect fill="#FEFECE" height="5" style="stroke: #A80036; stroke-width: 1.5;" width="10" x="756" y="260.2969"/><text fill="#000000" font-family="sans-serif" font-size="14" lengthAdjust="spacingAndGlyphs" textLength="97" x="771" y="256.9951">ceron-analyze</text><!--link nginx-proxy to letsencrypt-nginx-proxy-companion--><path d="M560.77,31.919 C501.295,38.476 399.046,51.896 313.5,74 C265.809,86.323 212.925,106.475 177.698,120.874 " fill="none" id="nginx-proxy-letsencrypt-nginx-proxy-companion" style="stroke: #A80036; stroke-width: 1.0;"/><!--link nginx-proxy to redmine--><path d="M560.808,29.332 C500.911,35.124 402.575,54.82 356.5,121 C332.817,155.017 348.614,206.831 359.549,233.614 " fill="none" id="nginx-proxy-redmine" style="stroke: #A80036; stroke-width: 1.0; stroke-dasharray: 7.0,7.0;"/><text fill="#000000" font-family="sans-serif" font-size="13" lengthAdjust="spacingAndGlyphs" textLength="105" x="357.5" y="143.5669">redmine.u6k.me</text><!--link nginx-proxy to blog--><path d="M560.651,42.522 C544.973,49.734 529.024,59.922 518.5,74 C508.415,87.491 506.004,106.958 505.751,120.875 " fill="none" id="nginx-proxy-blog" style="stroke: #A80036; stroke-width: 1.0; stroke-dasharray: 7.0,7.0;"/><text fill="#000000" font-family="sans-serif" font-size="13" lengthAdjust="spacingAndGlyphs" textLength="79" x="519.5" y="87.0669">blog.u6k.me</text><!--link nginx-proxy to owncloud--><path d="M608.966,44.108 C607.989,56.995 606.993,75.102 607.5,91 C607.813,100.807 608.491,111.747 609.124,120.603 " fill="none" id="nginx-proxy-owncloud" style="stroke: #A80036; stroke-width: 1.0; stroke-dasharray: 7.0,7.0;"/><text fill="#000000" font-family="sans-serif" font-size="13" lengthAdjust="spacingAndGlyphs" textLength="111" x="608.5" y="87.0669">owncloud.u6k.me</text><!--link nginx-proxy to jenkins--><path d="M660.15,34.467 C683.835,40.797 710.091,52.474 724.5,74 C733.648,87.667 731.885,106.922 728.768,120.736 " fill="none" id="nginx-proxy-jenkins" style="stroke: #A80036; stroke-width: 1.0; stroke-dasharray: 7.0,7.0;"/><text fill="#000000" font-family="sans-serif" font-size="13" lengthAdjust="spacingAndGlyphs" textLength="96" x="731.5" y="87.0669">jenkins.u6k.me</text><!--link nginx-proxy to minio--><path d="M660.286,30.343 C761.371,38.308 984.804,62.307 1028.5,121 C1048.42,147.758 1068.96,211.086 1019.5,270 C984.227,312.0174 815.229,336.483 747.08,344.7815 " fill="none" id="nginx-proxy-minio" style="stroke: #A80036; stroke-width: 1.0; stroke-dasharray: 7.0,7.0;"/><text fill="#000000" font-family="sans-serif" font-size="13" lengthAdjust="spacingAndGlyphs" textLength="67" x="1050.5" y="200.0669">s3.u6k.me</text><!--link nginx-proxy to bookmark--><path d="M660.418,26.904 C709.143,29.08 783.485,38.649 836.5,74 C867.857,94.909 925.317,193.489 947.963,233.779 " fill="none" id="nginx-proxy-bookmark" style="stroke: #A80036; stroke-width: 1.0; stroke-dasharray: 7.0,7.0;"/><text fill="#000000" font-family="sans-serif" font-size="13" lengthAdjust="spacingAndGlyphs" textLength="116" x="903.5" y="143.5669">bookmark.u6k.me</text><!--link jenkins to redmine--><path d="M688.772,152.276 C683.049,154.032 677.143,155.685 671.5,157 C579.679,178.396 549.407,152.922 461.5,187 C433.152,197.99 404.893,218.918 386.876,233.85 " fill="none" id="jenkins-redmine" style="stroke: #A80036; stroke-width: 1.0; stroke-dasharray: 7.0,7.0;"/><!--link jenkins to bookmark--><path d="M758.028,156.378 C801.761,177.124 876.772,212.706 921.29,233.824 " fill="none" id="jenkins-bookmark" style="stroke: #A80036; stroke-width: 1.0; stroke-dasharray: 7.0,7.0;"/><!--link jenkins to narou-crawler-db--><path d="M688.833,151.172 C636.521,168.813 541.474,204.18 522.5,234 C502.84,264.898 527.701,307.1939 545.159,330.6116 " fill="none" id="jenkins-narou-crawler-db" style="stroke: #A80036; stroke-width: 1.0; stroke-dasharray: 7.0,7.0;"/><!--link jenkins to narou-crawler--><path d="M704.089,157.1 C681.771,176.761 645.139,209.032 621.169,230.149 " fill="none" id="jenkins-narou-crawler" style="stroke: #A80036; stroke-width: 1.0;"/><polygon fill="#A80036" points="617.141,233.697,626.538,230.7479,620.8924,230.3913,621.2489,224.7457,617.141,233.697" style="stroke: #A80036; stroke-width: 1.0;"/><!--link jenkins to minio--><path d="M723.091,157.022 C722.192,194.426 720.044,283.7755 719.037,325.64 " fill="none" id="jenkins-minio" style="stroke: #A80036; stroke-width: 1.0;"/><polygon fill="#A80036" points="718.915,330.7433,723.1304,321.8421,719.0353,325.7447,715.1327,321.6497,718.915,330.7433" style="stroke: #A80036; stroke-width: 1.0;"/><!--link jenkins to ceron-analyze--><path d="M738.5,157.344 C755.478,176.975 783.133,208.951 801.324,229.984 " fill="none" id="jenkins-ceron-analyze" style="stroke: #A80036; stroke-width: 1.0;"/><polygon fill="#A80036" points="804.605,233.778,801.7417,224.3546,801.3337,229.9967,795.6915,229.5887,804.605,233.778" style="stroke: #A80036; stroke-width: 1.0;"/><!--link narou-crawler to narou-crawler-db--><path d="M590.53,270.4245 C584.317,285.9585 575.187,308.7829 568.438,325.6554 " fill="none" id="narou-crawler-narou-crawler-db" style="stroke: #A80036; stroke-width: 1.0;"/><polygon fill="#A80036" points="566.426,330.686,573.483,323.8158,568.2833,326.0438,566.0554,320.8441,566.426,330.686" style="stroke: #A80036; stroke-width: 1.0;"/><!--link narou-crawler to minio--><path d="M619.412,270.2038 C640.057,286.4121 670.989,310.6979 692.791,327.8151 " fill="none" id="narou-crawler-minio" style="stroke: #A80036; stroke-width: 1.0;"/><polygon fill="#A80036" points="696.751,330.9242,692.1433,322.2196,692.8187,327.836,687.2023,328.5114,696.751,330.9242" style="stroke: #A80036; stroke-width: 1.0;"/><!--link ceron-analyze to minio--><path d="M800.975,270.4245 C784.033,286.3603 758.934,309.9684 740.877,326.9523 " fill="none" id="ceron-analyze-minio" style="stroke: #A80036; stroke-width: 1.0;"/><polygon fill="#A80036" points="736.908,330.686,746.2043,327.4335,740.5501,327.2603,740.7232,321.6061,736.908,330.686" style="stroke: #A80036; stroke-width: 1.0;"/><!--
@startuml


[nginx-proxy]
[letsencrypt-nginx-proxy-companion]
[redmine]
[blog]
[owncloud]
[jenkins]
[bookmark]
[narou-crawler]
[narou-crawler-db]
[minio]
[ceron-analyze]

[nginx-proxy] - - [letsencrypt-nginx-proxy-companion]
[nginx-proxy] .. [redmine] : redmine.u6k.me
[nginx-proxy] .. [blog] : blog.u6k.me
[nginx-proxy] .. [owncloud] : owncloud.u6k.me
[nginx-proxy] .. [jenkins] : jenkins.u6k.me
[nginx-proxy] .. [minio] : s3.u6k.me
[nginx-proxy] .. [bookmark] : bookmark.u6k.me
[jenkins] .. [redmine]
[jenkins] .. [bookmark]
[jenkins] .. [narou-crawler-db]
[jenkins] - -> [narou-crawler]
[jenkins] - -> [minio]
[jenkins] - -> [ceron-analyze]
[narou-crawler] - -> [narou-crawler-db]
[narou-crawler] - -> [minio]
[ceron-analyze] - -> [minio]


@enduml

PlantUML version 1.2018.08(Sun Jun 24 21:31:00 JST 2018)
(GPL source distribution)
Java Runtime: OpenJDK Runtime Environment
JVM: OpenJDK 64-Bit Server VM
Java Version: 1.8.0_171-8u171-b11-1~deb9u1-b11
Operating System: Linux
OS Version: 4.9.87-linuxkit-aufs
Default Encoding: UTF-8
Language: en
Country: US
--></g></svg>