<?xml version="1.0" encoding="UTF-8" standalone="no"?><svg xmlns="http://www.w3.org/2000/svg" xmlns:xlink="http://www.w3.org/1999/xlink" contentScriptType="application/ecmascript" contentStyleType="text/css" height="484px" preserveAspectRatio="none" style="width:259px;height:484px;" version="1.1" viewBox="0 0 259 484" width="259px" zoomAndPan="magnify"><defs><filter height="300%" id="f7gnajd9wkyga" width="300%" x="-1" y="-1"><feGaussianBlur result="blurOut" stdDeviation="2.0"/><feColorMatrix in="blurOut" result="blurOut2" type="matrix" values="0 0 0 0 0 0 0 0 0 0 0 0 0 0 0 0 0 0 .4 0"/><feOffset dx="4.0" dy="4.0" in="blurOut2" result="blurOut3"/><feBlend in="SourceGraphic" in2="blurOut3" mode="normal"/></filter></defs><g><!--entity user--><ellipse cx="57.5" cy="18" fill="#FEFECE" filter="url(#f7gnajd9wkyga)" rx="8" ry="8" style="stroke: #A80036; stroke-width: 2.0;"/><path d="M57.5,26 L57.5,53 M44.5,34 L70.5,34 M57.5,53 L44.5,68 M57.5,53 L70.5,68 " fill="none" filter="url(#f7gnajd9wkyga)" style="stroke: #A80036; stroke-width: 2.0;"/><text fill="#000000" font-family="sans-serif" font-size="14" lengthAdjust="spacingAndGlyphs" textLength="31" x="42" y="87.9951">user</text><!--entity app--><rect fill="#FEFECE" filter="url(#f7gnajd9wkyga)" height="52.5938" style="stroke: #A80036; stroke-width: 1.5;" width="103" x="6" y="152"/><rect fill="#FEFECE" height="5" style="stroke: #A80036; stroke-width: 1.5;" width="10" x="1" y="157"/><rect fill="#FEFECE" height="5" style="stroke: #A80036; stroke-width: 1.5;" width="10" x="1" y="194.5938"/><text fill="#000000" font-family="sans-serif" font-size="14" font-style="italic" lengthAdjust="spacingAndGlyphs" textLength="83" x="16" y="174.9951">«container»</text><text fill="#000000" font-family="sans-serif" font-size="14" lengthAdjust="spacingAndGlyphs" textLength="26" x="44.5" y="191.292">app</text><!--entity redis--><path d="M6,292 C6,282 57.5,282 57.5,282 C57.5,282 109,282 109,292 L109,333.5938 C109,343.5938 57.5,343.5938 57.5,343.5938 C57.5,343.5938 6,343.5938 6,333.5938 L6,292 " fill="#FEFECE" filter="url(#f7gnajd9wkyga)" style="stroke: #000000; stroke-width: 1.5;"/><path d="M6,292 C6,302 57.5,302 57.5,302 C57.5,302 109,302 109,292 " fill="none" style="stroke: #000000; stroke-width: 1.5;"/><text fill="#000000" font-family="sans-serif" font-size="14" font-style="italic" lengthAdjust="spacingAndGlyphs" textLength="83" x="16" y="318.9951">«container»</text><text fill="#000000" font-family="sans-serif" font-size="14" lengthAdjust="spacingAndGlyphs" textLength="34" x="40.5" y="335.292">redis</text><!--entity worker--><rect fill="#FEFECE" filter="url(#f7gnajd9wkyga)" height="52.5938" style="stroke: #A80036; stroke-width: 1.5;" width="103" x="6" y="421"/><rect fill="#FEFECE" height="5" style="stroke: #A80036; stroke-width: 1.5;" width="10" x="1" y="426"/><rect fill="#FEFECE" height="5" style="stroke: #A80036; stroke-width: 1.5;" width="10" x="1" y="463.5938"/><text fill="#000000" font-family="sans-serif" font-size="14" font-style="italic" lengthAdjust="spacingAndGlyphs" textLength="83" x="16" y="443.9951">«container»</text><text fill="#000000" font-family="sans-serif" font-size="14" lengthAdjust="spacingAndGlyphs" textLength="47" x="34" y="460.292">worker</text><!--link user to app--><path d="M57.5,91.033 C57.5,109.058 57.5,129.938 57.5,146.663 " fill="none" id="user-app" style="stroke: #A80036; stroke-width: 1.0;"/><polygon fill="#A80036" points="57.5,151.712,61.5,142.712,57.5,146.712,53.5,142.712,57.5,151.712" style="stroke: #A80036; stroke-width: 1.0;"/><!--link app to redis--><path d="M57.5,205.047 C57.5,225.462 57.5,254.296 57.5,276.881 " fill="none" id="app-redis" style="stroke: #A80036; stroke-width: 1.0;"/><polygon fill="#A80036" points="57.5,281.892,61.5,272.892,57.5,276.892,53.5,272.892,57.5,281.892" style="stroke: #A80036; stroke-width: 1.0;"/><text fill="#000000" font-family="sans-serif" font-size="13" lengthAdjust="spacingAndGlyphs" textLength="56" x="58.5" y="248.0669">enqueue</text><!--link redis to worker--><path d="M57.5,349.333 C57.5,371.748 57.5,400.2496 57.5,420.5765 " fill="none" id="redis-worker" style="stroke: #A80036; stroke-width: 1.0;"/><polygon fill="#A80036" points="57.5,344.066,53.5,353.066,57.5,349.066,61.5,353.066,57.5,344.066" style="stroke: #A80036; stroke-width: 1.0;"/><text fill="#000000" font-family="sans-serif" font-size="13" lengthAdjust="spacingAndGlyphs" textLength="56" x="58.5" y="387.0669">dequeue</text><!--link worker to worker--><path d="M109.006,435.5264 C128.2,435.1338 144,439.125 144,447.5 C144,455.0898 131.024,459.0793 114.304,459.4685 " fill="none" id="worker-worker" style="stroke: #A80036; stroke-width: 1.0;"/><polygon fill="#A80036" points="109.006,459.4736,118.006,463.4736,114.006,459.4736,118.006,455.4736,109.006,459.4736" style="stroke: #A80036; stroke-width: 1.0;"/><text fill="#000000" font-family="sans-serif" font-size="13" lengthAdjust="spacingAndGlyphs" textLength="97" x="150" y="452.0669">execute worker</text><!--
@startuml

actor user
component app <<container>>
database redis <<container>>
component worker <<container>>

user - -> app
app - -> redis : enqueue
worker -up-> redis : dequeue
worker - -> worker : execute worker

@enduml

PlantUML version 1.2018.14(Sat Dec 22 01:33:16 JST 2018)
(GPL source distribution)
Java Runtime: OpenJDK Runtime Environment
JVM: OpenJDK 64-Bit Server VM
Java Version: 1.8.0_181-8u181-b13-2~deb9u1-b13
Operating System: Linux
OS Version: 4.9.0-8-amd64
Default Encoding: UTF-8
Language: en
Country: US
--></g></svg>