<?xml version="1.0" encoding="UTF-8" standalone="no"?><svg xmlns="http://www.w3.org/2000/svg" xmlns:xlink="http://www.w3.org/1999/xlink" contentScriptType="application/ecmascript" contentStyleType="text/css" height="637px" preserveAspectRatio="none" style="width:392px;height:637px;" version="1.1" viewBox="0 0 392 637" width="392px" zoomAndPan="magnify"><defs><filter height="300%" id="fgdkxcpy7dykq" width="300%" x="-1" y="-1"><feGaussianBlur result="blurOut" stdDeviation="2.0"/><feColorMatrix in="blurOut" result="blurOut2" type="matrix" values="0 0 0 0 0 0 0 0 0 0 0 0 0 0 0 0 0 0 .4 0"/><feOffset dx="4.0" dy="4.0" in="blurOut2" result="blurOut3"/><feBlend in="SourceGraphic" in2="blurOut3" mode="normal"/></filter></defs><g><!--cluster MacBookPro--><polygon fill="#FFFFFF" filter="url(#fgdkxcpy7dykq)" points="58,237,68,227,292,227,292,376,282,386,58,386,58,237" style="stroke: #000000; stroke-width: 1.5;"/><line style="stroke: #000000; stroke-width: 1.5;" x1="282" x2="291" y1="237" y2="228"/><line style="stroke: #000000; stroke-width: 1.5;" x1="58" x2="282" y1="237" y2="237"/><line style="stroke: #000000; stroke-width: 1.5;" x1="282" x2="282" y1="237" y2="386"/><text fill="#000000" font-family="sans-serif" font-size="14" font-weight="bold" lengthAdjust="spacingAndGlyphs" textLength="97" x="122.5" y="252.9951">MacBookPro</text><!--cluster VirtualBox--><rect fill="#FFFFFF" filter="url(#fgdkxcpy7dykq)" height="87" style="stroke: #000000; stroke-width: 1.5;" width="106" x="82" y="275"/><rect fill="#FFFFFF" height="10" style="stroke: #000000; stroke-width: 1.5;" width="15" x="168" y="280"/><rect fill="#FFFFFF" height="2" style="stroke: #000000; stroke-width: 1.5;" width="4" x="166" y="282"/><rect fill="#FFFFFF" height="2" style="stroke: #000000; stroke-width: 1.5;" width="4" x="166" y="286"/><text fill="#000000" font-family="sans-serif" font-size="14" font-weight="bold" lengthAdjust="spacingAndGlyphs" textLength="80" x="95" y="300.9951">VirtualBox</text><!--cluster HDD1,2,3--><polygon fill="#FFFFFF" filter="url(#fgdkxcpy7dykq)" points="57,429,67,419,213,419,213,501,203,511,57,511,57,429" style="stroke: #000000; stroke-width: 1.5;"/><line style="stroke: #000000; stroke-width: 1.5;" x1="203" x2="212" y1="429" y2="420"/><line style="stroke: #000000; stroke-width: 1.5;" x1="57" x2="203" y1="429" y2="429"/><line style="stroke: #000000; stroke-width: 1.5;" x1="203" x2="203" y1="429" y2="511"/><text fill="#000000" font-family="sans-serif" font-size="14" font-weight="bold" lengthAdjust="spacingAndGlyphs" textLength="73" x="94.5" y="444.9951">HDD1,2,3</text><!--entity macOS--><rect fill="#FEFECE" filter="url(#fgdkxcpy7dykq)" height="36.2969" style="stroke: #A80036; stroke-width: 1.5;" width="69" x="206.5" y="310"/><rect fill="#FEFECE" height="5" style="stroke: #A80036; stroke-width: 1.5;" width="10" x="201.5" y="315"/><rect fill="#FEFECE" height="5" style="stroke: #A80036; stroke-width: 1.5;" width="10" x="201.5" y="336.2969"/><text fill="#000000" font-family="sans-serif" font-size="14" lengthAdjust="spacingAndGlyphs" textLength="49" x="216.5" y="332.9951">macOS</text><!--entity CoreOS--><rect fill="#FEFECE" filter="url(#fgdkxcpy7dykq)" height="36.2969" style="stroke: #A80036; stroke-width: 1.5;" width="73" x="98.5" y="310"/><rect fill="#FEFECE" height="5" style="stroke: #A80036; stroke-width: 1.5;" width="10" x="93.5" y="315"/><rect fill="#FEFECE" height="5" style="stroke: #A80036; stroke-width: 1.5;" width="10" x="93.5" y="336.2969"/><text fill="#000000" font-family="sans-serif" font-size="14" lengthAdjust="spacingAndGlyphs" textLength="53" x="108.5" y="332.9951">CoreOS</text><!--entity LVM ext4 (6TB)--><rect fill="#FEFECE" filter="url(#fgdkxcpy7dykq)" height="36.2969" style="stroke: #A80036; stroke-width: 1.5;" width="124" x="73" y="459"/><rect fill="#FEFECE" height="5" style="stroke: #A80036; stroke-width: 1.5;" width="10" x="68" y="464"/><rect fill="#FEFECE" height="5" style="stroke: #A80036; stroke-width: 1.5;" width="10" x="68" y="485.2969"/><text fill="#000000" font-family="sans-serif" font-size="14" lengthAdjust="spacingAndGlyphs" textLength="104" x="83" y="481.9951">LVM ext4 (6TB)</text><!--entity VNC--><ellipse cx="233" cy="151" fill="#FEFECE" filter="url(#fgdkxcpy7dykq)" rx="8" ry="8" style="stroke: #A80036; stroke-width: 2.0;"/><text fill="#000000" font-family="sans-serif" font-size="14" lengthAdjust="spacingAndGlyphs" textLength="29" x="218.5" y="180.9951">VNC</text><!--entity SSH--><ellipse cx="140" cy="151" fill="#FEFECE" filter="url(#fgdkxcpy7dykq)" rx="8" ry="8" style="stroke: #A80036; stroke-width: 2.0;"/><text fill="#000000" font-family="sans-serif" font-size="14" lengthAdjust="spacingAndGlyphs" textLength="28" x="126" y="180.9951">SSH</text><!--entity HTTP(S)--><ellipse cx="42" cy="151" fill="#FEFECE" filter="url(#fgdkxcpy7dykq)" rx="8" ry="8" style="stroke: #A80036; stroke-width: 2.0;"/><text fill="#000000" font-family="sans-serif" font-size="14" lengthAdjust="spacingAndGlyphs" textLength="56" x="14" y="180.9951">HTTP(S)</text><!--entity ムームードメイン--><rect fill="#FEFECE" filter="url(#fgdkxcpy7dykq)" height="52.5938" style="stroke: #A80036; stroke-width: 1.5;" width="86" x="295" y="8"/><rect fill="#FEFECE" height="5" style="stroke: #A80036; stroke-width: 1.5;" width="10" x="290" y="13"/><rect fill="#FEFECE" height="5" style="stroke: #A80036; stroke-width: 1.5;" width="10" x="290" y="50.5938"/><text fill="#000000" font-family="sans-serif" font-size="14" font-style="italic" lengthAdjust="spacingAndGlyphs" textLength="66" x="305" y="30.9951">«外部サービス»</text><text fill="#000000" font-family="sans-serif" font-size="14" lengthAdjust="spacingAndGlyphs" textLength="64" x="306" y="47.292">ムームードメイン</text><!--entity MyDNS--><rect fill="#FEFECE" filter="url(#fgdkxcpy7dykq)" height="52.5938" style="stroke: #A80036; stroke-width: 1.5;" width="86" x="295" y="124.5"/><rect fill="#FEFECE" height="5" style="stroke: #A80036; stroke-width: 1.5;" width="10" x="290" y="129.5"/><rect fill="#FEFECE" height="5" style="stroke: #A80036; stroke-width: 1.5;" width="10" x="290" y="167.0938"/><text fill="#000000" font-family="sans-serif" font-size="14" font-style="italic" lengthAdjust="spacingAndGlyphs" textLength="66" x="305" y="147.4951">«外部サービス»</text><text fill="#000000" font-family="sans-serif" font-size="14" lengthAdjust="spacingAndGlyphs" textLength="49" x="313.5" y="163.792">MyDNS</text><!--entity AmazonCloudDrive--><rect fill="#FEFECE" filter="url(#fgdkxcpy7dykq)" height="52.5938" style="stroke: #A80036; stroke-width: 1.5;" width="151" x="59.5" y="574"/><rect fill="#FEFECE" height="5" style="stroke: #A80036; stroke-width: 1.5;" width="10" x="54.5" y="579"/><rect fill="#FEFECE" height="5" style="stroke: #A80036; stroke-width: 1.5;" width="10" x="54.5" y="616.5938"/><text fill="#000000" font-family="sans-serif" font-size="14" font-style="italic" lengthAdjust="spacingAndGlyphs" textLength="66" x="102" y="596.9951">«外部サービス»</text><text fill="#000000" font-family="sans-serif" font-size="14" lengthAdjust="spacingAndGlyphs" textLength="131" x="69.5" y="613.292">AmazonCloudDrive</text><!--link VNC to macOS--><path d="M233.386,160.441 C234.628,187.614 238.54,273.187 240.22,309.947 " fill="none" id="VNC-macOS" style="stroke: #A80036; stroke-width: 1.0;"/><!--link CoreOS to LVM ext4 (6TB)--><path d="M135,346.15 C135,372.816 135,424.212 135,453.715 " fill="none" id="CoreOS-LVM ext4 (6TB)" style="stroke: #A80036; stroke-width: 1.0;"/><polygon fill="#A80036" points="135,458.959,139,449.959,135,453.959,131,449.959,135,458.959" style="stroke: #A80036; stroke-width: 1.0;"/><!--link SSH to CoreOS--><path d="M139.759,160.441 C138.982,187.614 136.538,273.187 135.487,309.947 " fill="none" id="SSH-CoreOS" style="stroke: #A80036; stroke-width: 1.0;"/><!--link HTTP(S) to CoreOS--><path d="M46.4856,160.441 C60.9264,187.614 106.402,273.187 125.937,309.947 " fill="none" id="HTTP(S)-CoreOS" style="stroke: #A80036; stroke-width: 1.0;"/><!--link ムームードメイン to MyDNS--><path d="M338,61.196 C338,80.053 338,105.553 338,124.39 " fill="none" id="ムームードメイン-MyDNS" style="stroke: #A80036; stroke-width: 1.0;"/><!--link MyDNS to macOS--><path d="M323.687,177.822 C303.661,213.951 267.814,278.625 250.661,309.57 " fill="none" id="MyDNS-macOS" style="stroke: #A80036; stroke-width: 1.0;"/><!--link LVM ext4 (6TB) to AmazonCloudDrive--><path d="M135,495.15 C135,515.69 135,550.2839 135,573.9683 " fill="none" id="LVM ext4 (6TB)-AmazonCloudDrive" style="stroke: #A80036; stroke-width: 1.0;"/><text fill="#000000" font-family="sans-serif" font-size="13" lengthAdjust="spacingAndGlyphs" textLength="48" x="136" y="540.0669">バックアップ</text><!--
@startuml


interface "VNC"
interface "SSH"
interface "HTTP(S)"

node "MacBookPro" {
    [macOS]
    component "VirtualBox" {
        [CoreOS]
    }
}

node "HDD1,2,3" {
    [LVM ext4 (6TB)]
}

[ムームードメイン] <<外部サービス>>
[MyDNS] <<外部サービス>>
[AmazonCloudDrive] <<外部サービス>>

[macOS] -up- [VNC]
[CoreOS] - -> [LVM ext4 (6TB)]
[CoreOS] -up- [SSH]
[CoreOS] -up- [HTTP(S)]
[ムームードメイン] - - [MyDNS]
[MyDNS] - - [macOS]
[LVM ext4 (6TB)] - - [AmazonCloudDrive] : バックアップ


@enduml

PlantUML version 1.2018.07(Tue Jun 12 02:29:06 JST 2018)
(GPL source distribution)
Java Runtime: OpenJDK Runtime Environment
JVM: OpenJDK 64-Bit Server VM
Java Version: 1.8.0_171-8u171-b11-1~deb9u1-b11
Operating System: Linux
OS Version: 4.9.87-linuxkit-aufs
Default Encoding: UTF-8
Language: en
Country: US
--></g></svg>